<svg width="168" height="628" viewBox="0 0 168 628" fill="none" xmlns="http://www.w3.org/2000/svg">
<path fill-rule="evenodd" clip-rule="evenodd" d="M-81.7898 -40.0417C-34.2499 -31.0673 62.2141 45.6116 98.9724 87.4865C133.132 126.401 146.346 146.375 159.649 203.471C172.408 258.235 159.321 344.28 156.063 401.142C151.886 474.013 190.414 576.912 144.342 615.42C96.9482 655.033 38.1706 583.275 -16.421 563.7C-52.7112 550.688 -87.2395 540.994 -121.494 520.1C-164.116 494.102 -223.481 485.983 -239.919 427.375C-256.333 368.849 -202.849 317.577 -195.468 256.348C-186.384 180.988 -230.488 88.6976 -192.316 32.4982C-155.347 -21.9292 -136.792 -50.4247 -81.7898 -40.0417Z" fill="url(#paint0_linear_1982_1134)" fill-opacity="0.3"/>
<defs>
<linearGradient id="paint0_linear_1982_1134" x1="-180.687" y1="534.041" x2="64.3512" y2="101.829" gradientUnits="userSpaceOnUse">
<stop stop-color="#9EE6F7" stop-opacity="0"/>
<stop offset="1" stop-color="#9EE6F7" stop-opacity="0.46"/>
</linearGradient>
</defs>
</svg>
