<svg width="516" height="209" viewBox="0 0 516 209" fill="none" xmlns="http://www.w3.org/2000/svg">
<path fill-rule="evenodd" clip-rule="evenodd" d="M3.50013 239.648C13.7663 192.37 93.0447 98.0305 135.905 62.4266C175.736 29.3395 196.063 16.6753 253.5 4.93259C308.591 -6.33038 394.248 9.09594 451 13.9026C523.73 20.0627 627.641 -15.6475 664.879 31.4563C703.186 79.9116 629.853 136.712 608.799 190.751C594.803 226.673 584.172 260.924 562.353 294.597C535.203 336.495 525.47 395.616 466.436 410.451C407.485 425.265 357.688 370.404 296.683 361.358C221.599 350.224 128.141 391.798 73.0021 352.109C19.602 313.671 -8.37743 294.347 3.50013 239.648Z" fill="url(#paint0_linear_1982_1144)" fill-opacity="0.3"/>
<defs>
<linearGradient id="paint0_linear_1982_1144" x1="574.675" y1="354.148" x2="149.299" y2="97.4257" gradientUnits="userSpaceOnUse">
<stop stop-color="#9EE6F7" stop-opacity="0"/>
<stop offset="1" stop-color="#9EE6F7" stop-opacity="0.46"/>
</linearGradient>
</defs>
</svg>
